<svg preserveAspectRatio="none" overflow="visible" style="display: block;" width="48" height="48" viewBox="0 0 48 48" fill="none" xmlns="http://www.w3.org/2000/svg">
<g id="&#229;&#155;&#190;&#230;&#160;&#135;&#231;&#155;&#146;&#229;&#173;&#144;">
<path id="Subtract" d="M34.425 1.97406C35.6519 1.64531 36.9129 2.37341 37.2417 3.60027L38.7303 9.15566C38.8946 9.76915 38.4946 10.3847 38.0354 10.8235C37.4475 11.3853 37.1764 12.2422 37.4017 13.0832C37.71 14.2332 38.8374 14.9453 39.988 14.759C40.117 14.7312 40.2452 14.8095 40.2794 14.937L42.0041 21.3737C42.3327 22.6006 41.6048 23.8616 40.3779 24.1904L9.27486 32.5244C8.04801 32.853 6.78702 32.125 6.45819 30.8982L4.97011 25.3446C4.80574 24.7311 5.20573 24.1156 5.66479 23.6767C6.25272 23.1146 6.52379 22.2572 6.29845 21.4162C6.07301 20.5755 5.40973 19.9689 4.61971 19.7763C4.00268 19.6258 3.34852 19.2927 3.18415 18.6793L1.69582 13.1248C1.36719 11.8979 2.09523 10.6369 3.32203 10.3081L34.425 1.97406Z" fill="#FE534E" fill-opacity="0.6"/>
<path id="Subtract_2" d="M39.1 11.5C40.3702 11.5 41.3997 12.5296 41.3998 13.7998V19.5503C41.3998 20.1854 40.8542 20.6764 40.2971 20.9814C39.5837 21.3718 39.1 22.1294 39.1 23C39.1 23.8706 39.5837 24.6282 40.2971 25.0186C40.8542 25.3236 41.3998 25.8146 41.3998 26.4497V32.2002C41.3997 33.4704 40.3702 34.5 39.1 34.5H6.8998C5.6297 34.4999 4.60011 33.4703 4.6 32.2002V26.4498C4.6 25.8147 5.14571 25.3237 5.70282 25.0187C6.41614 24.6282 6.8998 23.8706 6.8998 23C6.8998 21.8092 5.99506 20.8298 4.83535 20.7119C4.70352 20.7053 4.6 20.5965 4.6 20.4646V13.7998C4.6001 12.5297 5.6297 11.5001 6.8998 11.5H39.1Z" fill="#FE514C"/>
<g id="Subtract_3">
<mask id="path-3-inside-1_0_65" fill="white">
<path d="M40.3779 20.4293C41.6048 20.758 42.3328 22.019 42.0041 23.2459L40.5158 28.8006C40.3514 29.414 39.6973 29.7471 39.0804 29.8976C38.2901 30.0904 37.6266 30.6974 37.4012 31.5383C37.0932 32.6887 37.7142 33.8693 38.8041 34.283C38.9292 34.3234 39.0007 34.4547 38.9667 34.5817L37.2417 41.0193C36.9129 42.2462 35.652 42.9743 34.4251 42.6456L3.32207 34.3115C2.09527 33.9827 1.36724 32.7217 1.69586 31.4949L3.18418 25.9404C3.34856 25.3269 4.00274 24.9938 4.61978 24.8434C5.40984 24.6508 6.0731 24.0442 6.29849 23.2034C6.60668 22.0532 5.9862 20.873 4.89658 20.4589C4.77094 20.4185 4.69911 20.2866 4.73327 20.1591L6.45823 13.7214C6.78706 12.4946 8.04806 11.7666 9.27491 12.0952L40.3779 20.4293Z"/>
</mask>
<path d="M40.3779 20.4293C41.6048 20.758 42.3328 22.019 42.0041 23.2459L40.5158 28.8006C40.3514 29.414 39.6973 29.7471 39.0804 29.8976C38.2901 30.0904 37.6266 30.6974 37.4012 31.5383C37.0932 32.6887 37.7142 33.8693 38.8041 34.283C38.9292 34.3234 39.0007 34.4547 38.9667 34.5817L37.2417 41.0193C36.9129 42.2462 35.652 42.9743 34.4251 42.6456L3.32207 34.3115C2.09527 33.9827 1.36724 32.7217 1.69586 31.4949L3.18418 25.9404C3.34856 25.3269 4.00274 24.9938 4.61978 24.8434C5.40984 24.6508 6.0731 24.0442 6.29849 23.2034C6.60668 22.0532 5.9862 20.873 4.89658 20.4589C4.77094 20.4185 4.69911 20.2866 4.73327 20.1591L6.45823 13.7214C6.78706 12.4946 8.04806 11.7666 9.27491 12.0952L40.3779 20.4293Z" fill="#FED5D2" fill-opacity="0.8"/>
<path d="M42.0041 23.2459L42.5595 23.3948L42.5595 23.3947L42.0041 23.2459ZM37.4012 31.5383L36.8458 31.3895L36.8458 31.3896L37.4012 31.5383ZM38.8041 34.283L38.6 34.8206L38.6137 34.8258L38.6277 34.8303L38.8041 34.283ZM37.2417 41.0193L37.7971 41.1682L37.7972 41.1682L37.2417 41.0193ZM34.4251 42.6456L34.2762 43.201V43.201L34.4251 42.6456ZM3.32207 34.3115L3.1732 34.8669L3.17325 34.8669L3.32207 34.3115ZM1.69586 31.4949L1.14045 31.346L1.14044 31.3461L1.69586 31.4949ZM6.29849 23.2034L6.85388 23.3522L6.8539 23.3522L6.29849 23.2034ZM4.89658 20.4589L5.10082 19.9214L5.08696 19.9162L5.07284 19.9116L4.89658 20.4589ZM6.45823 13.7214L5.90284 13.5726L5.90283 13.5726L6.45823 13.7214ZM9.27491 12.0952L9.42373 11.5398L9.42368 11.5398L9.27491 12.0952ZM39.0804 29.8976L38.9441 29.339L39.0804 29.8976ZM40.3779 20.4293L40.2291 20.9847C41.1492 21.2312 41.6952 22.1769 41.4487 23.0972L42.0041 23.2459L42.5595 23.3947C42.9703 21.8611 42.0604 20.2848 40.5267 19.8738L40.3779 20.4293ZM42.0041 23.2459L41.4487 23.0971L39.9603 28.6518L40.5158 28.8006L41.0712 28.9494L42.5595 23.3948L42.0041 23.2459ZM39.0804 29.8976L38.9441 29.339C37.958 29.5796 37.1277 30.3376 36.8458 31.3895L37.4012 31.5383L37.9566 31.6872C38.1254 31.0572 38.6222 30.6013 39.2167 30.4562L39.0804 29.8976ZM37.4012 31.5383L36.8458 31.3896C36.4607 32.8278 37.237 34.3032 38.6 34.8206L38.8041 34.283L39.0082 33.7455C38.1913 33.4354 37.7257 32.5495 37.9567 31.6871L37.4012 31.5383ZM38.9667 34.5817L38.4113 34.4329L36.6863 40.8705L37.2417 41.0193L37.7972 41.1682L39.5221 34.7305L38.9667 34.5817ZM37.2417 41.0193L36.6863 40.8705C36.4397 41.7907 35.494 42.3367 34.5739 42.0901L34.4251 42.6456L34.2762 43.201C35.8099 43.6119 37.3861 42.7017 37.7971 41.1682L37.2417 41.0193ZM34.4251 42.6456L34.5739 42.0901L3.47089 33.7561L3.32207 34.3115L3.17325 34.8669L34.2762 43.201L34.4251 42.6456ZM3.32207 34.3115L3.47094 33.7561C2.55084 33.5095 2.00481 32.5638 2.25128 31.6436L1.69586 31.4949L1.14044 31.3461C0.729662 32.8796 1.6397 34.4559 3.1732 34.8669L3.32207 34.3115ZM1.69586 31.4949L2.25127 31.6437L3.73959 26.0892L3.18418 25.9404L2.62877 25.7915L1.14045 31.346L1.69586 31.4949ZM4.61978 24.8434L4.75597 25.4021C5.74192 25.1617 6.57195 24.4041 6.85388 23.3522L6.29849 23.2034L5.74309 23.0545C5.57425 23.6844 5.07775 24.1399 4.4836 24.2848L4.61978 24.8434ZM6.29849 23.2034L6.8539 23.3522C7.23922 21.9141 6.46345 20.4392 5.10082 19.9214L4.89658 20.4589L4.69234 20.9964C5.50895 21.3067 5.97414 22.1922 5.74308 23.0546L6.29849 23.2034ZM4.73327 20.1591L5.28868 20.3079L7.01364 13.8703L6.45823 13.7214L5.90283 13.5726L4.17786 20.0103L4.73327 20.1591ZM6.45823 13.7214L7.01363 13.8703C7.26025 12.9502 8.206 12.4042 9.12613 12.6507L9.27491 12.0952L9.42368 11.5398C7.89012 11.129 6.31387 12.0391 5.90284 13.5726L6.45823 13.7214ZM9.27491 12.0952L9.12609 12.6506L40.2291 20.9847L40.3779 20.4293L40.5267 19.8738L9.42373 11.5398L9.27491 12.0952ZM4.89658 20.4589L5.07284 19.9116C5.23889 19.9651 5.33383 20.1394 5.28868 20.3079L4.73327 20.1591L4.17786 20.0103C4.06438 20.4338 4.30299 20.8719 4.72032 21.0063L4.89658 20.4589ZM3.18418 25.9404L3.73959 26.0892C3.7765 25.9514 3.87357 25.8183 4.05695 25.6928C4.24351 25.5651 4.49076 25.4667 4.75597 25.4021L4.61978 24.8434L4.4836 24.2848C4.13176 24.3705 3.7434 24.5139 3.40751 24.7437C3.06845 24.9757 2.75624 25.3158 2.62877 25.7915L3.18418 25.9404ZM38.8041 34.283L38.6277 34.8303C38.4612 34.7767 38.366 34.6019 38.4113 34.4329L38.9667 34.5817L39.5221 34.7305C39.6354 34.3076 39.3972 33.8701 38.9805 33.7358L38.8041 34.283ZM40.5158 28.8006L39.9603 28.6518C39.9234 28.7895 39.8264 28.9227 39.643 29.0482C39.4565 29.1759 39.2092 29.2743 38.9441 29.339L39.0804 29.8976L39.2167 30.4562C39.5684 30.3704 39.9567 30.227 40.2925 29.9972C40.6315 29.7651 40.9437 29.4251 41.0712 28.9494L40.5158 28.8006Z" fill="url(#paint0_linear_0_65)" fill-opacity="0.8" mask="url(#path-3-inside-1_0_65)"/>
</g>
<path id="Union" d="M26.8205 22.2093C27.1621 22.012 27.5993 22.1293 27.7968 22.4709C27.9941 22.8126 27.8776 23.25 27.5361 23.4475L24.2898 25.3225L26.3603 25.8773C26.7415 25.9795 26.9679 26.3716 26.8658 26.7528C26.7635 27.1338 26.3714 27.3604 25.9903 27.2583L23.2774 26.5314C23.2758 26.5859 23.2702 26.6414 23.2554 26.6964L22.846 28.2245L25.5391 28.9461C25.92 29.0483 26.1465 29.4405 26.0445 29.8216C25.9424 30.2027 25.5502 30.429 25.169 30.3271L22.4759 29.6055L21.6075 32.8466C21.5053 33.2276 21.113 33.454 20.732 33.3521C20.3508 33.2499 20.1245 32.8577 20.2265 32.4766L21.095 29.2354L18.267 28.4777C17.8858 28.3755 17.6594 27.9834 17.7615 27.6022C17.8638 27.2211 18.2559 26.9946 18.637 27.0967L21.465 27.8545L21.8745 26.3263C21.8892 26.2714 21.9111 26.2202 21.937 26.1722L19.0883 25.4089C18.7074 25.3066 18.4809 24.9143 18.5828 24.5334C18.6849 24.1523 19.0772 23.9261 19.4583 24.0279L21.5307 24.5832L19.6566 21.3372C19.4594 20.9955 19.5766 20.5582 19.9182 20.3609C20.2599 20.1636 20.6971 20.2808 20.8945 20.6225L23.0637 24.3783L26.8205 22.2093Z" fill="#FE4143"/>
</g>
<defs>
<linearGradient id="paint0_linear_0_65" x1="10.925" y1="14.95" x2="30.475" y2="43.125" gradientUnits="userSpaceOnUse">
<stop stop-color="white"/>
<stop offset="1" stop-color="white" stop-opacity="0"/>
</linearGradient>
</defs>
</svg>
